<?xml version="1.0" encoding="UTF-8" standalone="no"?>
<!-- Created with Inkscape (http://www.inkscape.org/) -->

<svg
   sodipodi:docname="meeseeks.svg"
   inkscape:version="1.2.2 (b0a8486, 2022-12-01)"
   id="svg31214"
   version="1.1"
   viewBox="0 0 247.65 196.84999"
   height="7.7499995in"
   width="9.75in"
   xmlns:inkscape="http://www.inkscape.org/namespaces/inkscape"
   xmlns:sodipodi="http://sodipodi.sourceforge.net/DTD/sodipodi-0.dtd"
   xmlns="http://www.w3.org/2000/svg"
   xmlns:svg="http://www.w3.org/2000/svg">
  <sodipodi:namedview
     id="namedview31216"
     pagecolor="#ffffff"
     bordercolor="#000000"
     borderopacity="0.25"
     inkscape:showpageshadow="2"
     inkscape:pageopacity="0.0"
     inkscape:pagecheckerboard="0"
     inkscape:deskcolor="#d1d1d1"
     inkscape:document-units="mm"
     showgrid="false"
     inkscape:zoom="0.7971035"
     inkscape:cx="636.68018"
     inkscape:cy="450.38066"
     inkscape:window-width="1920"
     inkscape:window-height="1080"
     inkscape:window-x="2560"
     inkscape:window-y="0"
     inkscape:window-maximized="0"
     inkscape:current-layer="layer1"
     showguides="false" />
  <defs
     id="defs31211" />
  <g
     inkscape:label="Layer 1"
     inkscape:groupmode="layer"
     id="layer1"
     transform="translate(154.56033,42.182119)">
    <g
       id="g4425"
       transform="rotate(-90,-16.298424,214.97671)">
      <g
         id="panel6282"
         style="fill:none;stroke:#ff0000;stroke-width:0.1;stroke-dasharray:none;stroke-opacity:1">
        <path
           style="fill:none;stroke:#ff0000;stroke-width:0.1;stroke-dasharray:none;stroke-opacity:1"
           d="m 80.17,164.44 h 11.9575 v -5.1 h 10.1695 v 5.1 h 11.873 v -5.1 h 10.17 v 5.1 h 11.873 v -5.1 h 10.169 v 5.1 h 11.958"
           id="path4087" />
        <path
           style="fill:none;stroke:#ff0000;stroke-width:0.1;stroke-dasharray:none;stroke-opacity:1"
           d="m 158.34,164.44 v 7.028 h -5.1 v 9.83 h 5.1 v 12.212 h -5.1 v 9.83 h 5.1 v 12.213 h -5.1 v 9.83 h 5.1 v 7.027"
           id="path4089" />
        <path
           style="fill:none;stroke:#ff0000;stroke-width:0.1;stroke-dasharray:none;stroke-opacity:1"
           d="m 158.34,232.41 h -11.958 v 5.1 h -10.169 v -5.1 H 124.34 v 5.1 h -10.17 v -5.1 h -11.873 v 5.1 H 92.1275 v -5.1 H 80.17"
           id="path4091" />
        <path
           style="fill:none;stroke:#ff0000;stroke-width:0.1;stroke-dasharray:none;stroke-opacity:1"
           d="m 80.17,232.41 v -7.028 h 5.1 v -9.83 h -5.1 V 203.34 h 5.1 v -9.83 h -5.1 v -12.213 h 5.1 v -9.83 h -5.1 v -7.027"
           id="path4093" />
      </g>
      <g
         id="g4411"
         transform="matrix(-0.77569888,0,0,-0.77567914,70.215529,252.43469)">
        <path
           id="path4399"
           style="fill:#000000;fill-opacity:1;stroke:none;stroke-width:0.26644;stroke-dasharray:none;stroke-opacity:1"
           d="m -100.58636,32.261916 v 20.943941 l 5.072555,5.072559 v 22.701456 l -5.072555,5.072559 v 20.942909 h 21.043673 l 4.972823,-4.97282 h 22.700423 l 4.972824,4.97282 h 21.043676 V 86.091188 l -5.111316,-5.111316 V 58.278416 L -25.852941,53.1671 V 32.261916 h -21.042643 l -4.97334,4.97334 H -74.57038 l -4.97334,-4.97334 z" />
        <path
           id="path4401"
           style="fill:#ffffff;fill-opacity:1;stroke:none;stroke-width:0.195389;stroke-dasharray:none;stroke-opacity:1"
           d="M -74.570078,42.226497 -90.621812,58.27823 v 22.701457 l 16.051217,16.051216 h 22.701457 L -35.817405,80.979687 V 58.27823 l -16.05225,-16.051733 z" />
        <path
           id="path4403"
           style="fill:none;fill-opacity:1;stroke:#000000;stroke-width:0.5;stroke-dasharray:none;stroke-opacity:1"
           d="m -101.64453,31.732422 c 0,7.303385 0,14.606771 0,21.910156 1.688911,1.694539 3.38182,3.385108 5.072264,5.078125 0,7.272787 0,14.545573 0,21.818359 -1.690438,1.692373 -3.383409,3.382229 -5.072264,5.076172 0,7.479818 0,14.959636 0,22.439456 7.51302,0 15.02604,0 22.539061,0 1.660746,-1.65565 3.317389,-3.31543 4.976563,-4.97266 7.272786,0 14.545573,0 21.818359,0 1.659176,1.65723 3.315814,3.31701 4.976563,4.97266 7.51302,0 15.026041,0 22.539062,0 0,-7.4668 0,-14.933596 0,-22.400393 -1.701871,-1.706971 -3.407873,-3.409837 -5.111328,-5.115235 0,-7.272786 0,-14.545572 0,-21.818359 1.703452,-1.7054 3.409461,-3.40826 5.111328,-5.115234 0,-7.467448 0,-14.934896 0,-22.402344 -7.513021,0 -15.026042,0 -22.539062,0 -1.660746,1.655648 -3.317389,3.315426 -4.976563,4.972656 -7.272786,0 -14.545573,0 -21.818359,0 -1.659176,-1.657228 -3.315814,-3.317011 -4.976563,-4.972656 -7.513021,0 -15.026041,0 -22.539061,0 0,0.176432 0,0.352865 0,0.529297 z" />
        <path
           id="path4405"
           style="fill:none;fill-opacity:1;stroke:#000000;stroke-width:0.195389;stroke-dasharray:none;stroke-opacity:1"
           d="m -89.5625,58.71875 c 0,7.273438 0,14.546875 0,21.820312 5.144531,5.144532 10.289063,10.289063 15.433594,15.433594 7.272786,0 14.545573,0 21.818359,0 5.144531,-5.144531 10.289063,-10.289062 15.433594,-15.433594 0,-7.273437 0,-14.546875 0,-21.820312 -5.144531,-5.144531 -10.289063,-10.289063 -15.433594,-15.433594 -7.272786,0 -14.545573,0 -21.818359,0 -5.144531,5.144531 -10.289063,10.289063 -15.433594,15.433594 z" />
        <path
           style="fill:none;fill-opacity:1;stroke:#000000;stroke-width:0.1;stroke-dasharray:none;stroke-opacity:1"
           d="m -74.233371,95.421453 0.232831,-52.154314 v 0"
           id="path4407" />
        <path
           style="fill:none;fill-opacity:1;stroke:#000000;stroke-width:0.1;stroke-dasharray:none;stroke-opacity:1"
           d="m -52.580017,95.654285 0.232831,-52.154314 v 0"
           id="path4409" />
      </g>
    </g>
    <g
       id="g4492"
       transform="rotate(-90,64.239676,51.787799)">
      <g
         id="g3782"
         transform="matrix(-0.77569888,0,0,-0.77567914,70.047324,93.663472)">
        <path
           id="path3770"
           style="fill:#000000;fill-opacity:1;stroke:none;stroke-width:0.26644;stroke-dasharray:none;stroke-opacity:1"
           d="m -100.58636,32.261916 v 20.943941 l 5.072555,5.072559 v 22.701456 l -5.072555,5.072559 v 20.942909 h 21.043673 l 4.972823,-4.97282 h 22.700423 l 4.972824,4.97282 h 21.043676 V 86.091188 l -5.111316,-5.111316 V 58.278416 L -25.852941,53.1671 V 32.261916 h -21.042643 l -4.97334,4.97334 H -74.57038 l -4.97334,-4.97334 z" />
        <path
           id="path3772"
           style="fill:#ffffff;fill-opacity:1;stroke:none;stroke-width:0.195389;stroke-dasharray:none;stroke-opacity:1"
           d="M -74.570078,42.226497 -90.621812,58.27823 v 22.701457 l 16.051217,16.051216 h 22.701457 L -35.817405,80.979687 V 58.27823 l -16.05225,-16.051733 z" />
        <path
           id="path3774"
           style="fill:none;fill-opacity:1;stroke:#000000;stroke-width:0.5;stroke-dasharray:none;stroke-opacity:1"
           d="m -101.64453,31.732422 c 0,7.303385 0,14.606771 0,21.910156 1.688911,1.694539 3.38182,3.385108 5.072264,5.078125 0,7.272787 0,14.545573 0,21.818359 -1.690438,1.692373 -3.383409,3.382229 -5.072264,5.076172 0,7.479818 0,14.959636 0,22.439456 7.51302,0 15.02604,0 22.539061,0 1.660746,-1.65565 3.317389,-3.31543 4.976563,-4.97266 7.272786,0 14.545573,0 21.818359,0 1.659176,1.65723 3.315814,3.31701 4.976563,4.97266 7.51302,0 15.026041,0 22.539062,0 0,-7.4668 0,-14.933596 0,-22.400393 -1.701871,-1.706971 -3.407873,-3.409837 -5.111328,-5.115235 0,-7.272786 0,-14.545572 0,-21.818359 1.703452,-1.7054 3.409461,-3.40826 5.111328,-5.115234 0,-7.467448 0,-14.934896 0,-22.402344 -7.513021,0 -15.026042,0 -22.539062,0 -1.660746,1.655648 -3.317389,3.315426 -4.976563,4.972656 -7.272786,0 -14.545573,0 -21.818359,0 -1.659176,-1.657228 -3.315814,-3.317011 -4.976563,-4.972656 -7.513021,0 -15.026041,0 -22.539061,0 0,0.176432 0,0.352865 0,0.529297 z" />
        <path
           id="path3776"
           style="fill:none;fill-opacity:1;stroke:#000000;stroke-width:0.195389;stroke-dasharray:none;stroke-opacity:1"
           d="m -89.5625,58.71875 c 0,7.273438 0,14.546875 0,21.820312 5.144531,5.144532 10.289063,10.289063 15.433594,15.433594 7.272786,0 14.545573,0 21.818359,0 5.144531,-5.144531 10.289063,-10.289062 15.433594,-15.433594 0,-7.273437 0,-14.546875 0,-21.820312 -5.144531,-5.144531 -10.289063,-10.289063 -15.433594,-15.433594 -7.272786,0 -14.545573,0 -21.818359,0 -5.144531,5.144531 -10.289063,10.289063 -15.433594,15.433594 z" />
        <path
           style="fill:none;fill-opacity:1;stroke:#000000;stroke-width:0.1;stroke-dasharray:none;stroke-opacity:1"
           d="m -74.233371,95.421453 0.232831,-52.154314 v 0"
           id="path3778" />
        <path
           style="fill:none;fill-opacity:1;stroke:#000000;stroke-width:0.1;stroke-dasharray:none;stroke-opacity:1"
           d="m -52.580017,95.654285 0.232831,-52.154314 v 0"
           id="path3780" />
      </g>
      <g
         id="panel9111"
         style="fill:none;stroke:#ff0000;stroke-width:0.1;stroke-dasharray:none;stroke-opacity:1">
        <path
           style="fill:none;stroke:#ff0000;stroke-width:0.1;stroke-dasharray:none;stroke-opacity:1"
           d="M 80.17,6.1 H 92.1275 V 1 H 102.297 V 6.1 H 114.17 V 1 h 10.17 v 5.1 h 11.873 V 1 h 10.169 v 5.1 h 11.958"
           id="path4132" />
        <path
           style="fill:none;stroke:#ff0000;stroke-width:0.1;stroke-dasharray:none;stroke-opacity:1"
           d="m 158.34,6.1 v 7.0275 h -5.1 v 9.83 h 5.1 V 35.17 h -5.1 V 45 h 5.1 v 12.2125 h -5.1 v 9.83 h 5.1 V 74.07"
           id="path4134" />
        <path
           style="fill:none;stroke:#ff0000;stroke-width:0.1;stroke-dasharray:none;stroke-opacity:1"
           d="m 158.34,74.07 h -11.958 v 5.1 h -10.169 v -5.1 H 124.34 v 5.1 h -10.17 v -5.1 h -11.873 v 5.1 H 92.1275 v -5.1 H 80.17"
           id="path4136" />
        <path
           style="fill:none;stroke:#ff0000;stroke-width:0.1;stroke-dasharray:none;stroke-opacity:1"
           d="m 80.17,74.07 v -7.0275 h 5.1 v -9.83 h -5.1 V 45 h 5.1 v -9.83 h -5.1 V 22.9575 h 5.1 v -9.83 h -5.1 V 6.1"
           id="path4138" />
      </g>
    </g>
    <g
       id="g4518"
       transform="translate(-153.68404,-39.83172)">
      <g
         id="panel1097"
         style="fill:none;stroke:#ff0000;stroke-width:0.1;stroke-dasharray:none;stroke-opacity:1">
        <path
           style="fill:none;stroke:#ff0000;stroke-width:0.1;stroke-dasharray:none;stroke-opacity:1"
           d="m 6.1,85.27 h 6.8575 v -5.1 h 10.17 v 5.1 H 35 v -5.1 h 10.17 v 5.1 h 11.8725 v -5.1 h 10.17 v 5.1 H 74.07"
           id="path4096" />
        <path
           style="fill:none;stroke:#ff0000;stroke-width:0.1;stroke-dasharray:none;stroke-opacity:1"
           d="m 74.07,85.27 v 6.8575 h 5.1 v 10.1695 h -5.1 v 11.873 h 5.1 v 10.17 h -5.1 v 11.873 h 5.1 v 10.169 h -5.1 v 6.858"
           id="path4098" />
        <path
           style="fill:none;stroke:#ff0000;stroke-width:0.1;stroke-dasharray:none;stroke-opacity:1"
           d="m 74.07,153.24 h -6.8575 v 5.1 h -10.17 v -5.1 H 45.17 v 5.1 H 35 v -5.1 H 23.1275 v 5.1 h -10.17 v -5.1 H 6.1"
           id="path4100" />
        <path
           style="fill:none;stroke:#ff0000;stroke-width:0.1;stroke-dasharray:none;stroke-opacity:1"
           d="m 6.1,153.24 v -6.858 H 1 V 136.213 H 6.1 V 124.34 H 1 V 114.17 H 6.1 V 102.297 H 1 V 92.1275 H 6.1 V 85.27"
           id="path4102" />
      </g>
      <g
         id="g4355"
         transform="matrix(0,-0.77569888,0.77567914,0,-13.924691,70.215528)">
        <path
           id="path4343"
           style="fill:#000000;fill-opacity:1;stroke:none;stroke-width:0.26644;stroke-dasharray:none;stroke-opacity:1"
           d="m -100.58636,32.261916 v 20.943941 l 5.072555,5.072559 v 22.701456 l -5.072555,5.072559 v 20.942909 h 21.043673 l 4.972823,-4.97282 h 22.700423 l 4.972824,4.97282 h 21.043676 V 86.091188 l -5.111316,-5.111316 V 58.278416 L -25.852941,53.1671 V 32.261916 h -21.042643 l -4.97334,4.97334 H -74.57038 l -4.97334,-4.97334 z" />
        <path
           id="path4345"
           style="fill:#ffffff;fill-opacity:1;stroke:none;stroke-width:0.195389;stroke-dasharray:none;stroke-opacity:1"
           d="M -74.570078,42.226497 -90.621812,58.27823 v 22.701457 l 16.051217,16.051216 h 22.701457 L -35.817405,80.979687 V 58.27823 l -16.05225,-16.051733 z" />
        <path
           id="path4347"
           style="fill:none;fill-opacity:1;stroke:#000000;stroke-width:0.5;stroke-dasharray:none;stroke-opacity:1"
           d="m -101.64453,31.732422 c 0,7.303385 0,14.606771 0,21.910156 1.688911,1.694539 3.38182,3.385108 5.072264,5.078125 0,7.272787 0,14.545573 0,21.818359 -1.690438,1.692373 -3.383409,3.382229 -5.072264,5.076172 0,7.479818 0,14.959636 0,22.439456 7.51302,0 15.02604,0 22.539061,0 1.660746,-1.65565 3.317389,-3.31543 4.976563,-4.97266 7.272786,0 14.545573,0 21.818359,0 1.659176,1.65723 3.315814,3.31701 4.976563,4.97266 7.51302,0 15.026041,0 22.539062,0 0,-7.4668 0,-14.933596 0,-22.400393 -1.701871,-1.706971 -3.407873,-3.409837 -5.111328,-5.115235 0,-7.272786 0,-14.545572 0,-21.818359 1.703452,-1.7054 3.409461,-3.40826 5.111328,-5.115234 0,-7.467448 0,-14.934896 0,-22.402344 -7.513021,0 -15.026042,0 -22.539062,0 -1.660746,1.655648 -3.317389,3.315426 -4.976563,4.972656 -7.272786,0 -14.545573,0 -21.818359,0 -1.659176,-1.657228 -3.315814,-3.317011 -4.976563,-4.972656 -7.513021,0 -15.026041,0 -22.539061,0 0,0.176432 0,0.352865 0,0.529297 z" />
        <path
           id="path4349"
           style="fill:none;fill-opacity:1;stroke:#000000;stroke-width:0.195389;stroke-dasharray:none;stroke-opacity:1"
           d="m -89.5625,58.71875 c 0,7.273438 0,14.546875 0,21.820312 5.144531,5.144532 10.289063,10.289063 15.433594,15.433594 7.272786,0 14.545573,0 21.818359,0 5.144531,-5.144531 10.289063,-10.289062 15.433594,-15.433594 0,-7.273437 0,-14.546875 0,-21.820312 -5.144531,-5.144531 -10.289063,-10.289063 -15.433594,-15.433594 -7.272786,0 -14.545573,0 -21.818359,0 -5.144531,5.144531 -10.289063,10.289063 -15.433594,15.433594 z" />
        <path
           style="fill:none;fill-opacity:1;stroke:#000000;stroke-width:0.1;stroke-dasharray:none;stroke-opacity:1"
           d="m -74.233371,95.421453 0.232831,-52.154314 v 0"
           id="path4351" />
        <path
           style="fill:none;fill-opacity:1;stroke:#000000;stroke-width:0.1;stroke-dasharray:none;stroke-opacity:1"
           d="m -52.580017,95.654285 0.232831,-52.154314 v 0"
           id="path4353" />
      </g>
    </g>
    <g
       id="g4544"
       transform="translate(-312.67897,-122.48253)">
      <g
         id="panel7204"
         style="fill:none;stroke:#ff0000;stroke-width:0.1;stroke-dasharray:none;stroke-opacity:1">
        <path
           style="fill:none;stroke:#ff0000;stroke-width:0.1;stroke-dasharray:none;stroke-opacity:1"
           d="m 164.44,85.27 h 6.858 v -5.1 h 10.17 v 5.1 h 11.872 v -5.1 h 10.17 v 5.1 h 11.872 v -5.1 h 10.17 v 5.1 h 6.858"
           id="path4114" />
        <path
           style="fill:none;stroke:#ff0000;stroke-width:0.1;stroke-dasharray:none;stroke-opacity:1"
           d="m 232.41,85.27 v 6.8575 h 5.1 v 10.1695 h -5.1 v 11.873 h 5.1 v 10.17 h -5.1 v 11.873 h 5.1 v 10.169 h -5.1 v 6.858"
           id="path4116" />
        <path
           style="fill:none;stroke:#ff0000;stroke-width:0.1;stroke-dasharray:none;stroke-opacity:1"
           d="m 232.41,153.24 h -6.858 v 5.1 h -10.17 v -5.1 H 203.51 v 5.1 h -10.17 v -5.1 h -11.872 v 5.1 h -10.17 v -5.1 h -6.858"
           id="path4118" />
        <path
           style="fill:none;stroke:#ff0000;stroke-width:0.1;stroke-dasharray:none;stroke-opacity:1"
           d="m 164.44,153.24 v -6.858 h -5.1 v -10.169 h 5.1 V 124.34 h -5.1 v -10.17 h 5.1 v -11.873 h -5.1 V 92.1275 h 5.1 V 85.27"
           id="path4120" />
      </g>
      <g
         id="g4383"
         transform="matrix(0,0.77569888,-0.77567914,0,252.09605,168.68861)">
        <path
           id="path4371"
           style="fill:#000000;fill-opacity:1;stroke:none;stroke-width:0.26644;stroke-dasharray:none;stroke-opacity:1"
           d="m -100.58636,32.261916 v 20.943941 l 5.072555,5.072559 v 22.701456 l -5.072555,5.072559 v 20.942909 h 21.043673 l 4.972823,-4.97282 h 22.700423 l 4.972824,4.97282 h 21.043676 V 86.091188 l -5.111316,-5.111316 V 58.278416 L -25.852941,53.1671 V 32.261916 h -21.042643 l -4.97334,4.97334 H -74.57038 l -4.97334,-4.97334 z" />
        <path
           id="path4373"
           style="fill:#ffffff;fill-opacity:1;stroke:none;stroke-width:0.195389;stroke-dasharray:none;stroke-opacity:1"
           d="M -74.570078,42.226497 -90.621812,58.27823 v 22.701457 l 16.051217,16.051216 h 22.701457 L -35.817405,80.979687 V 58.27823 l -16.05225,-16.051733 z" />
        <path
           id="path4375"
           style="fill:none;fill-opacity:1;stroke:#000000;stroke-width:0.5;stroke-dasharray:none;stroke-opacity:1"
           d="m -101.64453,31.732422 c 0,7.303385 0,14.606771 0,21.910156 1.688911,1.694539 3.38182,3.385108 5.072264,5.078125 0,7.272787 0,14.545573 0,21.818359 -1.690438,1.692373 -3.383409,3.382229 -5.072264,5.076172 0,7.479818 0,14.959636 0,22.439456 7.51302,0 15.02604,0 22.539061,0 1.660746,-1.65565 3.317389,-3.31543 4.976563,-4.97266 7.272786,0 14.545573,0 21.818359,0 1.659176,1.65723 3.315814,3.31701 4.976563,4.97266 7.51302,0 15.026041,0 22.539062,0 0,-7.4668 0,-14.933596 0,-22.400393 -1.701871,-1.706971 -3.407873,-3.409837 -5.111328,-5.115235 0,-7.272786 0,-14.545572 0,-21.818359 1.703452,-1.7054 3.409461,-3.40826 5.111328,-5.115234 0,-7.467448 0,-14.934896 0,-22.402344 -7.513021,0 -15.026042,0 -22.539062,0 -1.660746,1.655648 -3.317389,3.315426 -4.976563,4.972656 -7.272786,0 -14.545573,0 -21.818359,0 -1.659176,-1.657228 -3.315814,-3.317011 -4.976563,-4.972656 -7.513021,0 -15.026041,0 -22.539061,0 0,0.176432 0,0.352865 0,0.529297 z" />
        <path
           id="path4377"
           style="fill:none;fill-opacity:1;stroke:#000000;stroke-width:0.195389;stroke-dasharray:none;stroke-opacity:1"
           d="m -89.5625,58.71875 c 0,7.273438 0,14.546875 0,21.820312 5.144531,5.144532 10.289063,10.289063 15.433594,15.433594 7.272786,0 14.545573,0 21.818359,0 5.144531,-5.144531 10.289063,-10.289062 15.433594,-15.433594 0,-7.273437 0,-14.546875 0,-21.820312 -5.144531,-5.144531 -10.289063,-10.289063 -15.433594,-15.433594 -7.272786,0 -14.545573,0 -21.818359,0 -5.144531,5.144531 -10.289063,10.289063 -15.433594,15.433594 z" />
        <path
           style="fill:none;fill-opacity:1;stroke:#000000;stroke-width:0.1;stroke-dasharray:none;stroke-opacity:1"
           d="m -74.233371,95.421453 0.232831,-52.154314 v 0"
           id="path4379" />
        <path
           style="fill:none;fill-opacity:1;stroke:#000000;stroke-width:0.1;stroke-dasharray:none;stroke-opacity:1"
           d="m -52.580017,95.654285 0.232831,-52.154314 v 0"
           id="path4381" />
      </g>
    </g>
    <g
       id="g4439"
       transform="rotate(-90,142.83103,214.18725)">
      <g
         id="panel4451"
         style="fill:none;stroke:#ff0000;stroke-width:0.1;stroke-dasharray:none;stroke-opacity:1">
        <path
           style="fill:none;stroke:#ff0000;stroke-width:0.1;stroke-dasharray:none;stroke-opacity:1"
           d="m 238.51,80.17 h 12.127 v 5.1 h 9.83 v -5.1 h 12.213 v 5.1 h 9.83 v -5.1 h 12.212 v 5.1 h 9.83 v -5.1 h 12.128"
           id="path4123" />
        <path
           style="fill:none;stroke:#ff0000;stroke-width:0.1;stroke-dasharray:none;stroke-opacity:1"
           d="m 316.68,80.17 v 12.1275 h -5.1 v 9.8295 h 5.1 v 12.213 h -5.1 v 9.83 h 5.1 v 12.212 h -5.1 v 9.831 h 5.1 v 12.127"
           id="path4125" />
        <path
           style="fill:none;stroke:#ff0000;stroke-width:0.1;stroke-dasharray:none;stroke-opacity:1"
           d="m 316.68,158.34 h -12.127 v -5.1 h -9.83 v 5.1 H 282.51 v -5.1 h -9.83 v 5.1 h -12.212 v -5.1 h -9.83 v 5.1 H 238.51"
           id="path4127" />
        <path
           style="fill:none;stroke:#ff0000;stroke-width:0.1;stroke-dasharray:none;stroke-opacity:1"
           d="m 238.51,158.34 v -12.127 h 5.1 v -9.831 h -5.1 V 124.17 h 5.1 v -9.83 h -5.1 v -12.213 h 5.1 v -9.8295 h -5.1 V 80.17"
           id="path4129" />
      </g>
      <g
         id="g4397"
         transform="matrix(-0.77569888,0,0,-0.77567914,228.55553,173.26469)">
        <path
           id="path4385"
           style="fill:#000000;fill-opacity:1;stroke:none;stroke-width:0.26644;stroke-dasharray:none;stroke-opacity:1"
           d="m -100.58636,32.261916 v 20.943941 l 5.072555,5.072559 v 22.701456 l -5.072555,5.072559 v 20.942909 h 21.043673 l 4.972823,-4.97282 h 22.700423 l 4.972824,4.97282 h 21.043676 V 86.091188 l -5.111316,-5.111316 V 58.278416 L -25.852941,53.1671 V 32.261916 h -21.042643 l -4.97334,4.97334 H -74.57038 l -4.97334,-4.97334 z" />
        <path
           id="path4387"
           style="fill:#ffffff;fill-opacity:1;stroke:none;stroke-width:0.195389;stroke-dasharray:none;stroke-opacity:1"
           d="M -74.570078,42.226497 -90.621812,58.27823 v 22.701457 l 16.051217,16.051216 h 22.701457 L -35.817405,80.979687 V 58.27823 l -16.05225,-16.051733 z" />
        <path
           id="path4389"
           style="fill:none;fill-opacity:1;stroke:#000000;stroke-width:0.5;stroke-dasharray:none;stroke-opacity:1"
           d="m -101.64453,31.732422 c 0,7.303385 0,14.606771 0,21.910156 1.688911,1.694539 3.38182,3.385108 5.072264,5.078125 0,7.272787 0,14.545573 0,21.818359 -1.690438,1.692373 -3.383409,3.382229 -5.072264,5.076172 0,7.479818 0,14.959636 0,22.439456 7.51302,0 15.02604,0 22.539061,0 1.660746,-1.65565 3.317389,-3.31543 4.976563,-4.97266 7.272786,0 14.545573,0 21.818359,0 1.659176,1.65723 3.315814,3.31701 4.976563,4.97266 7.51302,0 15.026041,0 22.539062,0 0,-7.4668 0,-14.933596 0,-22.400393 -1.701871,-1.706971 -3.407873,-3.409837 -5.111328,-5.115235 0,-7.272786 0,-14.545572 0,-21.818359 1.703452,-1.7054 3.409461,-3.40826 5.111328,-5.115234 0,-7.467448 0,-14.934896 0,-22.402344 -7.513021,0 -15.026042,0 -22.539062,0 -1.660746,1.655648 -3.317389,3.315426 -4.976563,4.972656 -7.272786,0 -14.545573,0 -21.818359,0 -1.659176,-1.657228 -3.315814,-3.317011 -4.976563,-4.972656 -7.513021,0 -15.026041,0 -22.539061,0 0,0.176432 0,0.352865 0,0.529297 z" />
        <path
           id="path4391"
           style="fill:none;fill-opacity:1;stroke:#000000;stroke-width:0.195389;stroke-dasharray:none;stroke-opacity:1"
           d="m -89.5625,58.71875 c 0,7.273438 0,14.546875 0,21.820312 5.144531,5.144532 10.289063,10.289063 15.433594,15.433594 7.272786,0 14.545573,0 21.818359,0 5.144531,-5.144531 10.289063,-10.289062 15.433594,-15.433594 0,-7.273437 0,-14.546875 0,-21.820312 -5.144531,-5.144531 -10.289063,-10.289063 -15.433594,-15.433594 -7.272786,0 -14.545573,0 -21.818359,0 -5.144531,5.144531 -10.289063,10.289063 -15.433594,15.433594 z" />
        <path
           style="fill:none;fill-opacity:1;stroke:#000000;stroke-width:0.1;stroke-dasharray:none;stroke-opacity:1"
           d="m -74.233371,95.421453 0.232831,-52.154314 v 0"
           id="path4393" />
        <path
           style="fill:none;fill-opacity:1;stroke:#000000;stroke-width:0.1;stroke-dasharray:none;stroke-opacity:1"
           d="m -52.580017,95.654285 0.232831,-52.154314 v 0"
           id="path4395" />
      </g>
    </g>
    <g
       id="g4464"
       transform="rotate(-90,-17.043036,133.07051)">
      <g
         id="g4369"
         transform="matrix(-0.77569888,0,0,-0.77567914,70.215529,173.26469)">
        <path
           id="path4357"
           style="fill:#000000;fill-opacity:1;stroke:none;stroke-width:0.26644;stroke-dasharray:none;stroke-opacity:1"
           d="m -100.58636,32.261916 v 20.943941 l 5.072555,5.072559 v 22.701456 l -5.072555,5.072559 v 20.942909 h 21.043673 l 4.972823,-4.97282 h 22.700423 l 4.972824,4.97282 h 21.043676 V 86.091188 l -5.111316,-5.111316 V 58.278416 L -25.852941,53.1671 V 32.261916 h -21.042643 l -4.97334,4.97334 H -74.57038 l -4.97334,-4.97334 z" />
        <path
           id="path4359"
           style="fill:#ffffff;fill-opacity:1;stroke:none;stroke-width:0.195389;stroke-dasharray:none;stroke-opacity:1"
           d="M -74.570078,42.226497 -90.621812,58.27823 v 22.701457 l 16.051217,16.051216 h 22.701457 L -35.817405,80.979687 V 58.27823 l -16.05225,-16.051733 z" />
        <path
           id="path4361"
           style="fill:none;fill-opacity:1;stroke:#000000;stroke-width:0.5;stroke-dasharray:none;stroke-opacity:1"
           d="m -101.64453,31.732422 c 0,7.303385 0,14.606771 0,21.910156 1.688911,1.694539 3.38182,3.385108 5.072264,5.078125 0,7.272787 0,14.545573 0,21.818359 -1.690438,1.692373 -3.383409,3.382229 -5.072264,5.076172 0,7.479818 0,14.959636 0,22.439456 7.51302,0 15.02604,0 22.539061,0 1.660746,-1.65565 3.317389,-3.31543 4.976563,-4.97266 7.272786,0 14.545573,0 21.818359,0 1.659176,1.65723 3.315814,3.31701 4.976563,4.97266 7.51302,0 15.026041,0 22.539062,0 0,-7.4668 0,-14.933596 0,-22.400393 -1.701871,-1.706971 -3.407873,-3.409837 -5.111328,-5.115235 0,-7.272786 0,-14.545572 0,-21.818359 1.703452,-1.7054 3.409461,-3.40826 5.111328,-5.115234 0,-7.467448 0,-14.934896 0,-22.402344 -7.513021,0 -15.026042,0 -22.539062,0 -1.660746,1.655648 -3.317389,3.315426 -4.976563,4.972656 -7.272786,0 -14.545573,0 -21.818359,0 -1.659176,-1.657228 -3.315814,-3.317011 -4.976563,-4.972656 -7.513021,0 -15.026041,0 -22.539061,0 0,0.176432 0,0.352865 0,0.529297 z" />
        <path
           id="path4363"
           style="fill:none;fill-opacity:1;stroke:#000000;stroke-width:0.195389;stroke-dasharray:none;stroke-opacity:1"
           d="m -89.5625,58.71875 c 0,7.273438 0,14.546875 0,21.820312 5.144531,5.144532 10.289063,10.289063 15.433594,15.433594 7.272786,0 14.545573,0 21.818359,0 5.144531,-5.144531 10.289063,-10.289062 15.433594,-15.433594 0,-7.273437 0,-14.546875 0,-21.820312 -5.144531,-5.144531 -10.289063,-10.289063 -15.433594,-15.433594 -7.272786,0 -14.545573,0 -21.818359,0 -5.144531,5.144531 -10.289063,10.289063 -15.433594,15.433594 z" />
        <path
           style="fill:none;fill-opacity:1;stroke:#000000;stroke-width:0.1;stroke-dasharray:none;stroke-opacity:1"
           d="m -74.233371,95.421453 0.232831,-52.154314 v 0"
           id="path4365" />
        <path
           style="fill:none;fill-opacity:1;stroke:#000000;stroke-width:0.1;stroke-dasharray:none;stroke-opacity:1"
           d="m -52.580017,95.654285 0.232831,-52.154314 v 0"
           id="path4367" />
      </g>
      <g
         id="panel9217"
         style="fill:none;stroke:#ff0000;stroke-width:0.1;stroke-dasharray:none;stroke-opacity:1">
        <path
           id="path4111"
           style="fill:none;stroke:#ff0000;stroke-width:0.1;stroke-dasharray:none;stroke-opacity:1"
           d="m 80.17,158.34 v -12.127 h 5.1 v -9.831 h -5.1 V 124.17 h 5.1 v -9.83 h -5.1 v -12.213 h 5.1 v -9.8295 h -5.1 V 80.17 m 78.17,78.17 h -12.127 v -5.1 h -9.831 v 5.1 H 124.17 v -5.1 h -9.83 v 5.1 h -12.213 v -5.1 h -9.8295 v 5.1 H 80.17 m 78.17,-78.17 v 12.1275 h -5.1 v 9.8295 h 5.1 v 12.213 h -5.1 v 9.83 h 5.1 v 12.212 h -5.1 v 9.831 h 5.1 V 158.34 M 80.17,80.17 h 12.1275 v 5.1 h 9.8295 v -5.1 h 12.213 v 5.1 h 9.83 v -5.1 h 12.212 v 5.1 h 9.831 v -5.1 h 12.127 m -33.12377,39.085 a 5.9612336,5.9612336 0 0 1 -5.96123,5.96123 5.9612336,5.9612336 0 0 1 -5.96124,-5.96123 5.9612336,5.9612336 0 0 1 5.96124,-5.96124 5.9612336,5.9612336 0 0 1 5.96123,5.96124 z" />
      </g>
    </g>
  </g>
</svg>
